<svg xmlns="http://www.w3.org/2000/svg" xmlns:xlink="http://www.w3.org/1999/xlink" width="512" zoomAndPan="magnify" viewBox="0 0 384 383.999986" height="512" preserveAspectRatio="xMidYMid meet" version="1.0"><defs><g/><clipPath id="b17b115d42"><rect x="0" width="260" y="0" height="382"/></clipPath><clipPath id="55fb580873"><path d="M 85.609375 231 L 197.359375 231 L 197.359375 334.460938 L 85.609375 334.460938 Z M 85.609375 231 " clip-rule="nonzero"/></clipPath><clipPath id="35427b8006"><path d="M 30.148438 31.226562 L 141.898438 31.226562 L 141.898438 138.476562 L 30.148438 138.476562 Z M 30.148438 31.226562 " clip-rule="nonzero"/></clipPath></defs><rect x="-38.4" width="460.8" fill="#ffffff" y="-38.399999" height="460.799983" fill-opacity="1"/><rect x="-38.4" width="460.8" fill="#0a247a" y="-38.399999" height="460.799983" fill-opacity="1"/><g transform="matrix(1, 0, 0, 1, 70, 2)"><g clip-path="url(#b17b115d42)"><g fill="#ffffff" fill-opacity="1"><g transform="translate(0.900856, 331.517887)"><g><path d="M 70.953125 0 L 14.9375 0 L 14.9375 -250.1875 L 153.109375 -250.1875 C 183.972656 -250.1875 207.804688 -243.648438 224.609375 -230.578125 C 241.410156 -217.515625 249.8125 -199.035156 249.8125 -175.140625 C 249.8125 -154.722656 243.960938 -138.601562 232.265625 -126.78125 C 220.566406 -114.957031 202.894531 -107.921875 179.25 -105.671875 L 179.25 -102.6875 C 190.445312 -99.695312 198.785156 -95.210938 204.265625 -89.234375 C 209.742188 -83.265625 214.847656 -75.925781 219.578125 -67.21875 L 255.796875 0 L 190.8125 0 L 156.46875 -64.96875 C 153.226562 -71.445312 149.675781 -76.550781 145.8125 -80.28125 C 141.957031 -84.019531 137.101562 -86.695312 131.25 -88.3125 C 125.40625 -89.925781 117.628906 -90.734375 107.921875 -90.734375 L 70.953125 -90.734375 Z M 70.953125 -199.78125 L 70.953125 -132.9375 L 152.734375 -132.9375 C 165.921875 -132.9375 175.625 -135.300781 181.84375 -140.03125 C 188.070312 -144.757812 191.1875 -153.597656 191.1875 -166.546875 C 191.1875 -178.992188 188.070312 -187.644531 181.84375 -192.5 C 175.625 -197.351562 165.921875 -199.78125 152.734375 -199.78125 Z M 70.953125 -199.78125 "/></g></g></g></g></g><g clip-path="url(#55fb580873)"><path fill="#ffffff" d="M 197.714844 284.5625 C 148.238281 288.035156 145.292969 290.847656 141.660156 338.113281 C 138.027344 290.847656 135.085938 288.035156 85.609375 284.5625 C 135.085938 281.09375 138.027344 278.28125 141.660156 231.015625 C 145.292969 278.28125 148.238281 281.09375 197.714844 284.5625 Z M 197.714844 284.5625 " fill-opacity="1" fill-rule="nonzero"/></g><g clip-path="url(#35427b8006)"><path fill="#ffffff" d="M 142.253906 84.832031 C 92.777344 88.300781 89.835938 91.113281 86.203125 138.378906 C 82.570312 91.113281 79.625 88.300781 30.148438 84.832031 C 79.625 81.363281 82.570312 78.550781 86.203125 31.285156 C 89.835938 78.550781 92.777344 81.363281 142.253906 84.832031 Z M 142.253906 84.832031 " fill-opacity="1" fill-rule="nonzero"/></g></svg>
