<svg xmlns="http://www.w3.org/2000/svg" xmlns:xlink="http://www.w3.org/1999/xlink" width="300" zoomAndPan="magnify" viewBox="0 0 224.87999 225" height="300" preserveAspectRatio="xMidYMid meet" version="1.0"><defs><g></g><clipPath id="58dff94da2"><rect x="0" width="40" y="0" height="65"></rect></clipPath><clipPath id="7e2c6fad5d"><path d="M 19.257812 85.273438 L 35.75 85.273438 L 35.75 101.015625 L 19.257812 101.015625 Z M 19.257812 85.273438 " clip-rule="nonzero"></path></clipPath><clipPath id="1adadf1c55"><path d="M 27.328125 114.851562 L 43.816406 114.851562 L 43.816406 129.839844 L 27.328125 129.839844 Z M 27.328125 114.851562 " clip-rule="nonzero"></path></clipPath><clipPath id="3cac967507"><rect x="0" width="13" y="0" height="61"></rect></clipPath><clipPath id="83995a4065"><rect x="0" width="46" y="0" height="61"></rect></clipPath><clipPath id="8dee9d5d79"><rect x="0" width="42" y="0" height="61"></rect></clipPath><clipPath id="ca4389a924"><path d="M 1 11 L 42.710938 11 L 42.710938 48 L 1 48 Z M 1 11 " clip-rule="nonzero"></path></clipPath><clipPath id="993d46e9f8"><rect x="0" width="43" y="0" height="61"></rect></clipPath></defs><g transform="matrix(1, 0, 0, 1, 25, 80)"><g clip-path="url(#58dff94da2)"><g fill="#ffffff" fill-opacity="1"><g transform="translate(0.334388, 50.13917)"><g><path d="M 10.578125 0 L 2.234375 0 L 2.234375 -37.296875 L 22.828125 -37.296875 C 27.429688 -37.296875 30.984375 -36.320312 33.484375 -34.375 C 35.992188 -32.425781 37.25 -29.671875 37.25 -26.109375 C 37.25 -23.066406 36.375 -20.660156 34.625 -18.890625 C 32.882812 -17.128906 30.25 -16.082031 26.71875 -15.75 L 26.71875 -15.3125 C 28.394531 -14.863281 29.640625 -14.191406 30.453125 -13.296875 C 31.265625 -12.410156 32.023438 -11.316406 32.734375 -10.015625 L 38.140625 0 L 28.453125 0 L 23.328125 -9.6875 C 22.847656 -10.65625 22.316406 -11.414062 21.734375 -11.96875 C 21.160156 -12.519531 20.4375 -12.914062 19.5625 -13.15625 C 18.695312 -13.40625 17.539062 -13.53125 16.09375 -13.53125 L 10.578125 -13.53125 Z M 10.578125 -29.78125 L 10.578125 -19.8125 L 22.765625 -19.8125 C 24.734375 -19.8125 26.179688 -20.164062 27.109375 -20.875 C 28.035156 -21.582031 28.5 -22.898438 28.5 -24.828125 C 28.5 -26.679688 28.035156 -27.96875 27.109375 -28.6875 C 26.179688 -29.414062 24.734375 -29.78125 22.765625 -29.78125 Z M 10.578125 -29.78125 "></path></g></g></g></g></g><g clip-path="url(#7e2c6fad5d)"><path fill="#ffffff" d="M 35.972656 93.261719 C 28.59375 93.777344 28.15625 94.195312 27.617188 101.242188 C 27.074219 94.195312 26.636719 93.777344 19.257812 93.261719 C 26.636719 92.742188 27.074219 92.324219 27.617188 85.277344 C 28.15625 92.324219 28.59375 92.742188 35.972656 93.261719 Z M 35.972656 93.261719 " fill-opacity="1" fill-rule="nonzero"></path></g><g clip-path="url(#1adadf1c55)"><path fill="#ffffff" d="M 44.039062 122.835938 C 36.664062 123.355469 36.226562 123.773438 35.683594 130.820312 C 35.140625 123.773438 34.703125 123.355469 27.328125 122.835938 C 34.703125 122.320312 35.140625 121.902344 35.683594 114.855469 C 36.226562 121.902344 36.664062 122.320312 44.039062 122.835938 Z M 44.039062 122.835938 " fill-opacity="1" fill-rule="nonzero"></path></g><g transform="matrix(1, 0, 0, 1, 111, 83)"><g clip-path="url(#3cac967507)"><g fill="#ffffff" fill-opacity="1"><g transform="translate(0.278213, 47.225007)"><g><path d="M 10.0625 0 L 2.109375 0 L 2.109375 -35.453125 L 10.0625 -35.453125 Z M 10.0625 0 "></path></g></g></g></g></g><g transform="matrix(1, 0, 0, 1, 65, 83)"><g clip-path="url(#83995a4065)"><g fill="#ffffff" fill-opacity="1"><g transform="translate(1.885938, 47.225007)"><g><path d="M 8.625 0 L -0.265625 0 L 15.234375 -35.453125 L 26.5625 -35.453125 L 42.171875 0 L 33.078125 0 L 29.734375 -7.828125 L 12.015625 -7.828125 Z M 18.421875 -22.703125 L 15.078125 -14.984375 L 26.671875 -14.984375 L 23.34375 -22.703125 L 21.171875 -28.203125 L 20.59375 -28.203125 Z M 18.421875 -22.703125 "></path></g></g></g></g></g><g transform="matrix(1, 0, 0, 1, 164, 83)"><g clip-path="url(#8dee9d5d79)"><g fill="#ffffff" fill-opacity="1"><g transform="translate(0.478492, 47.435319)"><g><path d="M 20.46875 0.53125 C 16.53125 0.53125 13.132812 -0.21875 10.28125 -1.71875 C 7.425781 -3.226562 5.21875 -5.351562 3.65625 -8.09375 C 2.101562 -10.84375 1.328125 -14.082031 1.328125 -17.8125 C 1.328125 -21.53125 2.101562 -24.757812 3.65625 -27.5 C 5.21875 -30.25 7.425781 -32.375 10.28125 -33.875 C 13.132812 -35.382812 16.53125 -36.140625 20.46875 -36.140625 C 24.507812 -36.140625 27.972656 -35.382812 30.859375 -33.875 C 33.742188 -32.375 35.957031 -30.25 37.5 -27.5 C 39.039062 -24.757812 39.8125 -21.53125 39.8125 -17.8125 C 39.8125 -14.082031 39.039062 -10.84375 37.5 -8.09375 C 35.957031 -5.351562 33.742188 -3.226562 30.859375 -1.71875 C 27.972656 -0.21875 24.507812 0.53125 20.46875 0.53125 Z M 20.46875 -7.125 C 23.09375 -7.125 25.191406 -7.457031 26.765625 -8.125 C 28.335938 -8.800781 29.488281 -9.925781 30.21875 -11.5 C 30.945312 -13.082031 31.3125 -15.1875 31.3125 -17.8125 C 31.3125 -20.46875 30.945312 -22.570312 30.21875 -24.125 C 29.488281 -25.6875 28.335938 -26.800781 26.765625 -27.46875 C 25.191406 -28.144531 23.09375 -28.484375 20.46875 -28.484375 C 17.875 -28.484375 15.789062 -28.144531 14.21875 -27.46875 C 12.644531 -26.800781 11.507812 -25.6875 10.8125 -24.125 C 10.125 -22.570312 9.78125 -20.46875 9.78125 -17.8125 C 9.78125 -15.1875 10.125 -13.082031 10.8125 -11.5 C 11.507812 -9.925781 12.644531 -8.800781 14.21875 -8.125 C 15.789062 -7.457031 17.875 -7.125 20.46875 -7.125 Z M 20.46875 -7.125 "></path></g></g></g></g></g><g transform="matrix(1, 0, 0, 1, 124, 83)"><g clip-path="url(#993d46e9f8)"><g clip-path="url(#ca4389a924)"><g fill="#ffffff" fill-opacity="1"><g transform="translate(1.987003, 47.225007)"><g><path d="M 25.609375 0 L 14.28125 0 L -0.421875 -35.453125 L 9.15625 -35.453125 L 19.796875 -8.046875 L 20.328125 -8.046875 L 30.796875 -35.453125 L 40.328125 -35.453125 Z M 25.609375 0 "></path></g></g></g></g></g></g></svg>